<svg width="990" height="400" viewBox="0 0 990 400" fill="none" xmlns="http://www.w3.org/2000/svg">
<g filter="url(#filter0_d_7_4)">
<g filter="url(#filter1_d_7_4)">
<path d="M416.833 280.602C385.614 280.602 364.802 267.594 358.731 249.816C357.756 247.215 357.214 244.396 357.214 241.795C357.214 233.99 362.2 229.004 369.571 229.004C375.75 229.004 379.652 231.497 382.688 237.784C387.565 251.334 401.007 257.404 417.7 257.404C436.562 257.404 449.786 248.082 449.786 235.074C449.786 223.801 441.981 216.863 421.603 212.636L404.801 209.167C373.474 202.771 358.84 188.029 358.84 165.157C358.84 137.624 383.013 118.979 416.941 118.979C444.583 118.979 466.046 131.337 472.441 152.041C473.092 153.775 473.417 155.835 473.417 158.437C473.417 165.266 468.539 169.927 461.276 169.927C454.772 169.927 450.762 167.108 447.835 161.038C442.523 147.813 431.358 142.177 416.725 142.177C399.381 142.177 387.023 150.415 387.023 163.531C387.023 174.154 394.828 180.983 414.34 185.103L431.142 188.571C464.095 195.4 477.97 208.625 477.97 231.822C477.97 261.74 454.447 280.602 416.833 280.602ZM557.023 280.168C547.917 280.168 542.931 275.94 540.112 266.293L515.181 180.441C514.314 177.081 513.88 174.805 513.88 172.42C513.88 165.591 519.191 160.821 526.888 160.821C533.608 160.821 537.836 164.724 539.462 172.203L558.54 251.334H559.082L579.136 173.179C580.979 165.157 586.29 160.821 594.528 160.821C602.658 160.821 607.861 165.049 609.704 173.179L629.866 251.334H630.517L649.595 172.095C651.221 164.615 655.34 160.821 661.952 160.821C669.649 160.821 674.852 165.482 674.852 172.312C674.852 174.696 674.418 176.973 673.442 180.225L648.619 266.293C645.909 275.724 640.598 280.168 631.492 280.168C621.845 280.168 616.642 276.049 614.149 266.185L594.42 193.991H593.878L574.149 266.293C571.873 275.724 566.345 280.168 557.023 280.168ZM764.202 280.276C730.49 280.276 708.594 257.838 708.594 220.549C708.594 183.477 730.707 160.713 764.202 160.713C797.697 160.713 819.811 183.368 819.811 220.549C819.811 257.838 797.914 280.276 764.202 280.276ZM764.202 258.922C781.329 258.922 792.386 245.047 792.386 220.549C792.386 196.159 781.329 182.176 764.202 182.176C747.184 182.176 736.019 196.159 736.019 220.549C736.019 245.047 747.075 258.922 764.202 258.922ZM867.753 280.168C860.49 280.168 855.287 275.507 855.287 269.003C855.287 265.859 856.371 263.366 858.648 260.114L887.807 220.657L859.081 180.983C857.13 178.382 856.155 175.672 856.155 172.528C856.155 165.916 861.791 160.821 869.162 160.821C874.474 160.821 877.184 162.664 880.653 168.084L904.609 203.422H905.151L928.565 168.301C932.033 162.989 934.96 160.821 939.73 160.821C947.318 160.821 952.629 165.591 952.629 172.312C952.629 175.455 951.654 178.165 949.269 181.309L920.652 219.898L949.377 260.006C951.328 262.824 952.304 265.426 952.304 268.244C952.304 275.398 946.667 280.168 939.405 280.168C934.418 280.168 931.491 278.108 928.673 273.772L903.85 236.809H903.308L878.593 273.339C875.233 278.542 872.306 280.168 867.753 280.168Z" fill="#61FD10"/>
</g>
</g>
<path d="M237.027 171.41C237.653 171.399 238.279 171.387 238.924 171.376C249.88 171.327 259.544 175.378 267.555 182.786C276.199 191.977 279.296 203.547 278.978 215.886C278.366 230.323 271.567 243.088 261.986 253.588C261.637 253.982 261.287 254.376 260.927 254.782C256.479 259.54 250.904 263.365 245.109 266.288C244.79 266.449 244.471 266.611 244.143 266.777C237.939 269.756 231.636 271.451 224.874 272.598C224.066 272.74 223.259 272.882 222.452 273.026C220.266 273.412 218.079 273.79 215.892 274.166C213.546 274.571 211.203 274.984 208.859 275.396C204.847 276.1 200.835 276.8 196.822 277.496C171.723 281.849 146.629 286.236 121.546 290.677C120.374 290.884 119.201 291.092 118.029 291.299C112.251 292.322 106.473 293.345 100.694 294.369C96.7756 295.063 92.8569 295.757 88.938 296.449C87.7742 296.654 86.6104 296.86 85.4467 297.067C83.8854 297.344 82.3238 297.619 80.7621 297.895C80.3064 297.976 79.8506 298.057 79.381 298.141C76.2933 298.684 76.2933 298.684 75.0827 298.684C74.2118 287.047 80.3433 276.308 87.6471 267.714C95.4944 259.256 105.59 254.348 117.005 252.819C119.356 252.461 121.672 251.992 124.001 251.51C129.486 250.394 134.993 249.442 140.514 248.523C164.539 244.52 188.428 239.768 212.496 236.011C215.618 235.519 218.709 234.992 221.787 234.273C223.506 233.883 225.242 233.593 226.976 233.281C231.22 232.427 234.794 231.548 237.484 227.92C239.609 224.517 240.988 221.244 240.253 217.185C239.143 214.173 237.136 212.094 234.277 210.665C229.425 210.332 224.86 210.928 220.116 211.887C219.472 212.012 218.828 212.136 218.165 212.264C215.407 212.8 212.653 213.355 209.904 213.931C203.388 215.29 196.84 216.341 190.264 217.362C175.28 219.691 160.417 222.633 145.483 225.242C143.155 225.651 140.832 226.081 138.512 226.532C123.024 229.532 107.015 232.359 93.0124 223.161C85.2292 217.701 79.1766 210.19 76.7127 200.885C76.7127 200.168 76.7127 199.451 76.7127 198.712C82.9607 197.55 89.2073 196.408 95.4941 195.473C97.4423 195.178 99.3623 194.838 101.283 194.396C103.716 193.849 106.156 193.381 108.61 192.941C109.044 192.863 109.478 192.784 109.926 192.703C111.317 192.452 112.709 192.203 114.1 191.954C114.574 191.869 115.048 191.784 115.536 191.696C152.209 185.119 189.046 180.106 225.527 172.316C229.395 171.549 233.091 171.427 237.027 171.41Z" fill="url(#paint0_linear_7_4)"/>
<path d="M278.829 102C279.278 113.663 273.946 124.368 266.301 132.912C259.855 139.85 252.119 144.283 242.97 146.553C242.627 146.639 242.284 146.726 241.93 146.815C235.727 148.356 229.451 149.375 223.137 150.341C176.666 157.534 130.551 166.817 84.2039 174.735C81.711 175.158 79.2174 175.547 76.7127 175.892C78.3461 162.4 87.7474 149.582 98.1188 141.24C109.156 132.661 121.467 129.149 135.086 126.959C176.283 120.112 217.328 112.35 258.486 105.264C259.046 105.167 259.606 105.071 260.184 104.971C261.269 104.784 262.354 104.598 263.44 104.412C265.883 103.992 268.326 103.567 270.766 103.129C271.196 103.052 271.625 102.975 272.068 102.895C272.857 102.753 273.646 102.61 274.435 102.465C275.929 102.196 277.307 102 278.829 102Z" fill="url(#paint1_linear_7_4)"/>
<defs>
<filter id="filter0_d_7_4" x="348.214" y="118.979" width="604.415" height="169.622" filterUnits="userSpaceOnUse" color-interpolation-filters="sRGB">
<feFlood flood-opacity="0" result="BackgroundImageFix"/>
<feColorMatrix in="SourceAlpha" type="matrix" values="0 0 0 0 0 0 0 0 0 0 0 0 0 0 0 0 0 0 127 0" result="hardAlpha"/>
<feOffset dx="-5" dy="4"/>
<feGaussianBlur stdDeviation="2"/>
<feComposite in2="hardAlpha" operator="out"/>
<feColorMatrix type="matrix" values="0 0 0 0 0 0 0 0 0 0 0 0 0 0 0 0 0 0 0.25 0"/>
<feBlend mode="normal" in2="BackgroundImageFix" result="effect1_dropShadow_7_4"/>
<feBlend mode="normal" in="SourceGraphic" in2="effect1_dropShadow_7_4" result="shape"/>
</filter>
<filter id="filter1_d_7_4" x="355.614" y="117.379" width="612.615" height="178.822" filterUnits="userSpaceOnUse" color-interpolation-filters="sRGB">
<feFlood flood-opacity="0" result="BackgroundImageFix"/>
<feColorMatrix in="SourceAlpha" type="matrix" values="0 0 0 0 0 0 0 0 0 0 0 0 0 0 0 0 0 0 127 0" result="hardAlpha"/>
<feOffset dx="7" dy="7"/>
<feGaussianBlur stdDeviation="4.3"/>
<feComposite in2="hardAlpha" operator="out"/>
<feColorMatrix type="matrix" values="0 0 0 0 0 0 0 0 0 0 0 0 0 0 0 0 0 0 0.2 0"/>
<feBlend mode="normal" in2="BackgroundImageFix" result="effect1_dropShadow_7_4"/>
<feBlend mode="normal" in="SourceGraphic" in2="effect1_dropShadow_7_4" result="shape"/>
</filter>
<linearGradient id="paint0_linear_7_4" x1="230.5" y1="-8.05528" x2="68.5" y2="507.945" gradientUnits="userSpaceOnUse">
<stop offset="0.050206" stop-color="#9BFF68"/>
<stop offset="0.376059" stop-color="#62FF10"/>
<stop offset="1" stop-color="#3B990A"/>
</linearGradient>
<linearGradient id="paint1_linear_7_4" x1="230.5" y1="-8.05528" x2="68.5" y2="507.945" gradientUnits="userSpaceOnUse">
<stop offset="0.050206" stop-color="#9BFF68"/>
<stop offset="0.376059" stop-color="#62FF10"/>
<stop offset="1" stop-color="#3B990A"/>
</linearGradient>
</defs>
</svg>
