<svg width="990" height="400" viewBox="0 0 990 400" fill="none" xmlns="http://www.w3.org/2000/svg">
<path d="M237.027 171.41C237.653 171.399 238.279 171.387 238.924 171.376C249.88 171.327 259.544 175.378 267.555 182.786C276.199 191.977 279.296 203.547 278.978 215.886C278.366 230.323 271.567 243.088 261.986 253.588C261.637 253.982 261.287 254.376 260.927 254.782C256.479 259.54 250.904 263.365 245.109 266.288C244.79 266.449 244.471 266.611 244.143 266.777C237.939 269.756 231.636 271.451 224.874 272.598C224.066 272.74 223.259 272.882 222.452 273.026C220.266 273.412 218.079 273.79 215.892 274.166C213.546 274.571 211.203 274.984 208.859 275.396C204.847 276.1 200.835 276.8 196.822 277.496C171.723 281.849 146.629 286.236 121.546 290.677C120.374 290.884 119.201 291.092 118.029 291.299C112.251 292.322 106.473 293.345 100.694 294.369C96.7756 295.063 92.8569 295.757 88.938 296.449C87.7742 296.654 86.6104 296.86 85.4467 297.067C83.8854 297.344 82.3238 297.619 80.7621 297.895C80.3064 297.976 79.8506 298.057 79.381 298.141C76.2933 298.684 76.2933 298.684 75.0827 298.684C74.2118 287.047 80.3433 276.308 87.6471 267.714C95.4944 259.256 105.59 254.348 117.005 252.819C119.356 252.461 121.672 251.992 124.001 251.51C129.486 250.394 134.993 249.442 140.514 248.523C164.539 244.52 188.428 239.768 212.496 236.011C215.618 235.519 218.709 234.992 221.787 234.273C223.506 233.883 225.242 233.593 226.976 233.281C231.22 232.427 234.794 231.548 237.484 227.92C239.609 224.517 240.988 221.244 240.253 217.185C239.143 214.173 237.136 212.094 234.277 210.665C229.425 210.332 224.86 210.928 220.116 211.887C219.472 212.012 218.828 212.136 218.165 212.264C215.407 212.8 212.653 213.355 209.904 213.931C203.388 215.29 196.84 216.341 190.264 217.362C175.28 219.691 160.417 222.633 145.483 225.242C143.155 225.651 140.832 226.081 138.512 226.532C123.024 229.532 107.015 232.359 93.0124 223.161C85.2292 217.701 79.1766 210.19 76.7127 200.885C76.7127 200.168 76.7127 199.451 76.7127 198.712C82.9607 197.55 89.2073 196.408 95.4941 195.473C97.4423 195.178 99.3623 194.838 101.283 194.396C103.716 193.849 106.156 193.381 108.61 192.941C109.044 192.863 109.478 192.784 109.926 192.703C111.317 192.452 112.709 192.203 114.1 191.954C114.574 191.869 115.048 191.784 115.536 191.696C152.209 185.119 189.046 180.106 225.527 172.316C229.395 171.549 233.091 171.427 237.027 171.41Z" fill="url(#paint0_linear_117_2)"/>
<path d="M278.829 102C279.278 113.663 273.946 124.368 266.301 132.912C259.855 139.85 252.119 144.283 242.97 146.553C242.627 146.639 242.284 146.726 241.93 146.815C235.727 148.356 229.451 149.375 223.137 150.341C176.666 157.534 130.551 166.817 84.2038 174.735C81.7109 175.158 79.2173 175.547 76.7126 175.892C78.346 162.4 87.7473 149.582 98.1187 141.24C109.156 132.661 121.467 129.149 135.086 126.959C176.283 120.112 217.328 112.35 258.486 105.264C259.046 105.167 259.606 105.071 260.184 104.971C261.269 104.784 262.354 104.598 263.44 104.412C265.883 103.992 268.326 103.567 270.766 103.129C271.196 103.052 271.625 102.975 272.068 102.895C272.857 102.753 273.646 102.61 274.435 102.465C275.929 102.196 277.307 102 278.829 102Z" fill="url(#paint1_linear_117_2)"/>
<path d="M401.624 284.707C369.139 284.707 347.483 271.172 341.167 252.674C340.151 249.967 339.587 247.034 339.587 244.327C339.587 236.206 344.776 231.018 352.446 231.018C358.875 231.018 362.936 233.612 366.094 240.154C371.169 254.253 385.156 260.569 402.526 260.569C422.152 260.569 435.913 250.869 435.913 237.334C435.913 225.604 427.792 218.385 406.586 213.986L389.104 210.376C356.506 203.722 341.279 188.382 341.279 164.583C341.279 135.933 366.432 116.533 401.736 116.533C430.499 116.533 452.832 129.391 459.486 150.935C460.163 152.739 460.501 154.882 460.501 157.589C460.501 164.695 455.426 169.545 447.869 169.545C441.101 169.545 436.928 166.613 433.882 160.296C428.355 146.536 416.738 140.67 401.511 140.67C383.464 140.67 370.605 149.243 370.605 162.891C370.605 173.944 378.727 181.05 399.029 185.336L416.512 188.946C450.801 196.052 465.239 209.812 465.239 233.95C465.239 265.081 440.763 284.707 401.624 284.707ZM562.272 284.369C527.306 284.369 504.748 260.682 504.748 222.333C504.748 184.208 527.194 159.958 562.047 159.958C585.508 159.958 605.472 172.027 611.224 188.833C612.127 191.202 612.691 193.57 612.691 195.601C612.691 202.594 607.389 206.88 600.622 206.88C594.982 206.88 591.598 204.511 588.327 198.872C582.349 187.931 574.454 182.742 562.836 182.742C544.789 182.742 533.285 197.744 533.285 222.22C533.285 247.034 544.902 261.697 562.723 261.697C575.131 261.697 582.801 255.945 588.215 246.357C592.05 240.041 595.095 237.672 601.186 237.672C607.841 237.672 613.029 242.184 613.029 249.177C613.029 251.32 612.465 253.689 611.337 256.396C604.682 272.751 584.831 284.369 562.272 284.369ZM710.288 284.369C675.21 284.369 652.425 261.021 652.425 222.22C652.425 183.645 675.435 159.958 710.288 159.958C745.141 159.958 768.151 183.532 768.151 222.22C768.151 261.021 745.367 284.369 710.288 284.369ZM710.288 262.148C728.11 262.148 739.614 247.711 739.614 222.22C739.614 196.841 728.11 182.291 710.288 182.291C692.58 182.291 680.962 196.841 680.962 222.22C680.962 247.711 692.467 262.148 710.288 262.148ZM826.271 145.633C817.586 145.633 810.706 138.866 810.706 130.406C810.706 121.834 817.586 115.179 826.271 115.179C835.069 115.179 841.949 121.834 841.949 130.406C841.949 138.866 835.069 145.633 826.271 145.633ZM826.271 284.256C817.699 284.256 812.285 278.616 812.285 269.48V174.847C812.285 165.823 817.699 160.071 826.271 160.071C834.843 160.071 840.37 165.823 840.37 174.959V269.48C840.37 278.616 834.843 284.256 826.271 284.256ZM904.243 284.256C896.009 284.256 890.143 278.955 890.143 269.48V131.76C890.143 122.285 896.009 116.984 904.243 116.984C912.476 116.984 918.229 122.285 918.229 131.76V269.48C918.229 278.955 912.476 284.256 904.243 284.256Z" fill="#62FE10"/>
<defs>
<linearGradient id="paint0_linear_117_2" x1="230.5" y1="-8.05527" x2="68.5" y2="507.945" gradientUnits="userSpaceOnUse">
<stop offset="0.050206" stop-color="#9BFF68"/>
<stop offset="0.376059" stop-color="#62FF10"/>
<stop offset="1" stop-color="#3B990A"/>
</linearGradient>
<linearGradient id="paint1_linear_117_2" x1="230.5" y1="-8.05528" x2="68.5" y2="507.945" gradientUnits="userSpaceOnUse">
<stop offset="0.050206" stop-color="#9BFF68"/>
<stop offset="0.376059" stop-color="#62FF10"/>
<stop offset="1" stop-color="#3B990A"/>
</linearGradient>
</defs>
</svg>
