<svg width="990" height="400" viewBox="0 0 990 400" fill="none" xmlns="http://www.w3.org/2000/svg">
<g filter="url(#filter0_d_7_4)">
<path d="M389.833 265.602C358.614 265.602 337.802 252.594 331.731 234.816C330.756 232.215 330.214 229.396 330.214 226.795C330.214 218.99 335.2 214.004 342.571 214.004C348.75 214.004 352.652 216.497 355.688 222.784C360.565 236.334 374.007 242.404 390.7 242.404C409.562 242.404 422.786 233.082 422.786 220.074C422.786 208.801 414.981 201.863 394.603 197.636L377.801 194.167C346.474 187.771 331.84 173.029 331.84 150.157C331.84 122.624 356.013 103.979 389.941 103.979C417.583 103.979 439.046 116.337 445.441 137.041C446.092 138.775 446.417 140.835 446.417 143.437C446.417 150.266 441.539 154.927 434.276 154.927C427.772 154.927 423.762 152.108 420.835 146.038C415.523 132.813 404.358 127.177 389.725 127.177C372.381 127.177 360.023 135.415 360.023 148.531C360.023 159.154 367.828 165.983 387.34 170.103L404.142 173.571C437.095 180.4 450.97 193.625 450.97 216.822C450.97 246.74 427.447 265.602 389.833 265.602ZM530.023 265.168C520.917 265.168 515.931 260.94 513.112 251.293L488.181 165.441C487.314 162.081 486.88 159.805 486.88 157.42C486.88 150.591 492.191 145.821 499.888 145.821C506.608 145.821 510.836 149.724 512.462 157.203L531.54 236.334H532.082L552.136 158.179C553.979 150.157 559.29 145.821 567.528 145.821C575.658 145.821 580.861 150.049 582.704 158.179L602.866 236.334H603.517L622.595 157.095C624.221 149.615 628.34 145.821 634.952 145.821C642.649 145.821 647.852 150.482 647.852 157.312C647.852 159.696 647.418 161.973 646.442 165.225L621.619 251.293C618.909 260.724 613.598 265.168 604.492 265.168C594.845 265.168 589.642 261.049 587.149 251.185L567.42 178.991H566.878L547.149 251.293C544.873 260.724 539.345 265.168 530.023 265.168ZM737.202 265.276C703.49 265.276 681.594 242.838 681.594 205.549C681.594 168.477 703.707 145.713 737.202 145.713C770.697 145.713 792.811 168.368 792.811 205.549C792.811 242.838 770.914 265.276 737.202 265.276ZM737.202 243.922C754.329 243.922 765.386 230.047 765.386 205.549C765.386 181.159 754.329 167.176 737.202 167.176C720.184 167.176 709.019 181.159 709.019 205.549C709.019 230.047 720.075 243.922 737.202 243.922ZM840.753 265.168C833.49 265.168 828.287 260.507 828.287 254.003C828.287 250.859 829.371 248.366 831.648 245.114L860.807 205.657L832.081 165.983C830.13 163.382 829.155 160.672 829.155 157.528C829.155 150.916 834.791 145.821 842.162 145.821C847.474 145.821 850.184 147.664 853.653 153.084L877.609 188.422H878.151L901.565 153.301C905.033 147.989 907.96 145.821 912.73 145.821C920.318 145.821 925.629 150.591 925.629 157.312C925.629 160.455 924.654 163.165 922.269 166.309L893.652 204.898L922.377 245.006C924.328 247.824 925.304 250.426 925.304 253.244C925.304 260.398 919.667 265.168 912.405 265.168C907.418 265.168 904.491 263.108 901.673 258.772L876.85 221.809H876.308L851.593 258.339C848.233 263.542 845.306 265.168 840.753 265.168Z" fill="#61FD10"/>
</g>
<path d="M237.027 171.41C237.653 171.399 238.279 171.387 238.924 171.376C249.88 171.327 259.544 175.378 267.555 182.786C276.199 191.977 279.296 203.547 278.978 215.886C278.366 230.323 271.567 243.088 261.986 253.588C261.637 253.982 261.287 254.376 260.927 254.782C256.479 259.54 250.904 263.365 245.109 266.288C244.79 266.449 244.471 266.611 244.143 266.777C237.939 269.756 231.636 271.451 224.874 272.598C224.066 272.74 223.259 272.882 222.452 273.026C220.266 273.412 218.079 273.79 215.892 274.166C213.546 274.571 211.203 274.984 208.859 275.396C204.847 276.1 200.835 276.8 196.822 277.496C171.723 281.849 146.629 286.236 121.546 290.677C120.374 290.884 119.201 291.092 118.029 291.299C112.251 292.322 106.473 293.345 100.694 294.369C96.7756 295.063 92.8569 295.757 88.938 296.449C87.7742 296.654 86.6104 296.86 85.4467 297.067C83.8854 297.344 82.3238 297.619 80.7621 297.895C80.3064 297.976 79.8506 298.057 79.381 298.141C76.2933 298.684 76.2933 298.684 75.0827 298.684C74.2118 287.047 80.3433 276.308 87.6471 267.714C95.4944 259.256 105.59 254.348 117.005 252.819C119.356 252.461 121.672 251.992 124.001 251.51C129.486 250.394 134.993 249.442 140.514 248.523C164.539 244.52 188.428 239.768 212.496 236.011C215.618 235.519 218.709 234.992 221.787 234.273C223.506 233.883 225.242 233.593 226.976 233.281C231.22 232.427 234.794 231.548 237.484 227.92C239.609 224.517 240.988 221.244 240.253 217.185C239.143 214.173 237.136 212.094 234.277 210.665C229.425 210.332 224.86 210.928 220.116 211.887C219.472 212.012 218.828 212.136 218.165 212.264C215.407 212.8 212.653 213.355 209.904 213.931C203.388 215.29 196.84 216.341 190.264 217.362C175.28 219.691 160.417 222.633 145.483 225.242C143.155 225.651 140.832 226.081 138.512 226.532C123.024 229.532 107.015 232.359 93.0124 223.161C85.2292 217.701 79.1766 210.19 76.7127 200.885C76.7127 200.168 76.7127 199.451 76.7127 198.712C82.9607 197.55 89.2073 196.408 95.4941 195.473C97.4423 195.178 99.3623 194.838 101.283 194.396C103.716 193.849 106.156 193.381 108.61 192.941C109.044 192.863 109.478 192.784 109.926 192.703C111.317 192.452 112.709 192.203 114.1 191.954C114.574 191.869 115.048 191.784 115.536 191.696C152.209 185.119 189.046 180.106 225.527 172.316C229.395 171.549 233.091 171.427 237.027 171.41Z" fill="url(#paint0_linear_7_4)"/>
<path d="M278.829 102C279.278 113.663 273.946 124.368 266.301 132.912C259.855 139.85 252.119 144.283 242.97 146.553C242.627 146.639 242.284 146.726 241.93 146.815C235.727 148.356 229.451 149.375 223.137 150.341C176.666 157.534 130.551 166.817 84.2039 174.735C81.711 175.158 79.2174 175.547 76.7127 175.892C78.3461 162.4 87.7474 149.582 98.1188 141.24C109.156 132.661 121.467 129.149 135.086 126.959C176.283 120.112 217.328 112.35 258.486 105.264C259.046 105.167 259.606 105.071 260.184 104.971C261.269 104.784 262.354 104.598 263.44 104.412C265.883 103.992 268.326 103.567 270.766 103.129C271.196 103.052 271.625 102.975 272.068 102.895C272.857 102.753 273.646 102.61 274.435 102.465C275.929 102.196 277.307 102 278.829 102Z" fill="url(#paint1_linear_7_4)"/>
<defs>
<filter id="filter0_d_7_4" x="328.614" y="102.379" width="612.615" height="178.822" filterUnits="userSpaceOnUse" color-interpolation-filters="sRGB">
<feFlood flood-opacity="0" result="BackgroundImageFix"/>
<feColorMatrix in="SourceAlpha" type="matrix" values="0 0 0 0 0 0 0 0 0 0 0 0 0 0 0 0 0 0 127 0" result="hardAlpha"/>
<feOffset dx="7" dy="7"/>
<feGaussianBlur stdDeviation="4.3"/>
<feComposite in2="hardAlpha" operator="out"/>
<feColorMatrix type="matrix" values="0 0 0 0 0 0 0 0 0 0 0 0 0 0 0 0 0 0 0.2 0"/>
<feBlend mode="normal" in2="BackgroundImageFix" result="effect1_dropShadow_7_4"/>
<feBlend mode="normal" in="SourceGraphic" in2="effect1_dropShadow_7_4" result="shape"/>
</filter>
<linearGradient id="paint0_linear_7_4" x1="230.5" y1="-8.05528" x2="68.5" y2="507.945" gradientUnits="userSpaceOnUse">
<stop offset="0.050206" stop-color="#9BFF68"/>
<stop offset="0.376059" stop-color="#62FF10"/>
<stop offset="1" stop-color="#3B990A"/>
</linearGradient>
<linearGradient id="paint1_linear_7_4" x1="230.5" y1="-8.05528" x2="68.5" y2="507.945" gradientUnits="userSpaceOnUse">
<stop offset="0.050206" stop-color="#9BFF68"/>
<stop offset="0.376059" stop-color="#62FF10"/>
<stop offset="1" stop-color="#3B990A"/>
</linearGradient>
</defs>
</svg>
